<svg width="87" height="87" viewBox="0 0 87 87" fill="none" xmlns="http://www.w3.org/2000/svg">
<path d="M86.1932 0.0659485H0.205643V86.0535H86.1932V0.0659485Z" fill="#F7DF1E"/>
<path d="M57.9675 67.2441C59.6995 70.0721 61.9529 72.1508 65.9384 72.1508C69.2864 72.1508 71.4252 70.4775 71.4252 68.1654C71.4252 65.3947 69.2277 64.4133 65.5426 62.8014L63.5225 61.9347C57.6918 59.4506 53.8182 56.3387 53.8182 49.76C53.8182 43.6999 58.4356 39.0866 65.6518 39.0866C70.7892 39.0866 74.4825 40.8746 77.1441 45.5561L70.852 49.5962C69.4666 47.1121 67.9721 46.1335 65.6518 46.1335C63.2851 46.1335 61.7851 47.6348 61.7851 49.5962C61.7851 52.0202 63.2864 53.0015 66.7532 54.5029L68.7732 55.3682C75.6386 58.3123 79.5149 61.3137 79.5149 68.0616C79.5149 75.3365 73.8001 79.3219 66.1254 79.3219C58.6213 79.3219 53.7732 75.7459 51.401 71.0589L57.9675 67.2441ZM29.4237 67.9443C30.6931 70.1963 31.8478 72.1003 34.6239 72.1003C37.2786 72.1003 38.9533 71.0617 38.9533 67.023V39.5479H47.0334V67.1322C47.0334 75.4989 42.128 79.3069 34.9679 79.3069C28.4983 79.3069 24.7517 75.9589 22.8464 71.9263L29.4237 67.9443Z" fill="black"/>
</svg>
